<svg xmlns="http://www.w3.org/2000/svg" xmlns:xlink="http://www.w3.org/1999/xlink" width="1920" height="328.501" viewBox="0 0 1920 328.501">
  <defs>
    <linearGradient id="linear-gradient" x1="0.5" x2="0.5" y2="1" gradientUnits="objectBoundingBox">
      <stop offset="0" stop-color="#2f3844"/>
      <stop offset="1" stop-color="#515863"/>
    </linearGradient>
  </defs>
  <g id="_485ffda8ff43e5be22c4244cbd855dcd" data-name="485ffda8ff43e5be22c4244cbd855dcd" transform="translate(44.816 -34.5)">
    <path id="Path_12" data-name="Path 12" d="M1865.819,95.775c-109.558-42.46-281.726-51.981-470.577-37.359-108.9,8.432-199.452,27.832-288.46,46.9-86.4,18.508-171.331,36.706-270.188,44.265-150.978,11.543-244.763-2.792-396-25.907-78.158-11.945-171.66-26.237-296.326-40.513C83.82,76.242-2.259,73.757-54,73.535V380.5H1865.816Z" transform="translate(9.184 -17.5)" fill="url(#linear-gradient)"/>
    <path id="Subtraction_1" data-name="Subtraction 1" d="M1890.34,258.509H0V51.262c31.056.176,62.336,7.684,95.453,15.632h.006c22.1,5.3,44.952,10.789,69.126,14.437a371.569,371.569,0,0,0,56.015,4.2c31.028,0,59.044-3.634,88.706-7.482h.007l3.133-.406c15.677-2.031,31.072-3.975,47.057-5.424,18.3-1.659,35.26-2.465,51.852-2.465,35.844,0,72.085,3.789,110.8,11.583a815.917,815.917,0,0,1,82.663,21.034c23.395,7.295,42.865,14.505,61.693,21.479,46.9,17.367,83.937,31.085,144.475,31.085a495.813,495.813,0,0,0,49.938-2.705c23.775-2.394,47.257-5.627,71.788-9.884,21.884-3.8,44.13-8.332,68.009-13.865,44.4-10.286,88.127-22.626,130.416-34.56l.026-.007c.177.01.375.015.589.015,5.4,0,20.914-3.346,34.6-6.3l.009,0,.922-.2c14.547-3.138,28.287-6.1,33.052-6.1.141,0,.281,0,.416.009,40.364,1.834,80.906,2.764,120.5,2.764,38.554,0,77.2-.882,114.856-2.62,34.97-1.614,69.952-4.008,103.973-7.114,59.9-5.469,118.508-13.285,174.2-23.231,44.6-7.965,87.454-17.31,127.372-27.773C1877.248,14.028,1903.906,5.505,1920,0V231.017l-29.66,27.492Z" transform="translate(-44.816 104.492)" fill="url(#linear-gradient)"/>
  </g>
</svg>
